<svg xmlns="http://www.w3.org/2000/svg" width="48" height="48" viewBox="0 0 48 48">
  <g id="Group_1925" data-name="Group 1925" transform="translate(-1137 -509)">
    <path id="Path_778" data-name="Path 778" d="M6.857,0H41.143A6.857,6.857,0,0,1,48,6.857V41.143A6.857,6.857,0,0,1,41.143,48H6.857A6.857,6.857,0,0,1,0,41.143V6.857A6.857,6.857,0,0,1,6.857,0Z" transform="translate(1137 509)" fill="#fff"/>
    <g id="Group_1921" data-name="Group 1921">
      <g id="icons" transform="translate(1143.044 515.013)">
        <path id="favorite" d="M19.417,2.966l3.67,7.984a1.687,1.687,0,0,0,1.117.958l8.3,1.277a1.446,1.446,0,0,1,.957,2.555l-6.063,6.228a2.23,2.23,0,0,0-.479,1.437l1.436,8.623a1.6,1.6,0,0,1-2.234,1.757l-7.5-4.152a1.2,1.2,0,0,0-1.436,0l-7.5,4.152a1.54,1.54,0,0,1-2.234-1.757l1.436-8.623a1.61,1.61,0,0,0-.479-1.437L2.346,15.741A1.66,1.66,0,0,1,3.3,13.026l8.3-1.277a1.369,1.369,0,0,0,1.117-.958l3.67-7.984A1.73,1.73,0,0,1,19.417,2.966Z" transform="translate(0 0)" fill="#f59433"/>
      </g>
      <path id="Subtraction_21" data-name="Subtraction 21" d="M-5821.161,76.983a1.351,1.351,0,0,1-.677-.185l-7.5-4.152a1.32,1.32,0,0,0-.664-.237V45a1.673,1.673,0,0,1,1.462.978l3.669,7.984a1.733,1.733,0,0,0,1.117.958l8.3,1.278a1.392,1.392,0,0,1,1.346.84,1.582,1.582,0,0,1-.389,1.715l-6.063,6.227a2.228,2.228,0,0,0-.479,1.437l1.436,8.622a1.789,1.789,0,0,1-.437,1.4A1.517,1.517,0,0,1-5821.161,76.983Z" transform="translate(6991 472)" fill="#fff" opacity="0.2"/>
    </g>
  </g>
</svg>
