<svg xmlns="http://www.w3.org/2000/svg" xmlns:xlink="http://www.w3.org/1999/xlink" width="48" height="48" viewBox="0 0 48 48">
  <defs>
    <clipPath id="clip-path">
      <path id="Union_35" data-name="Union 35" d="M-5839.551,64.336a38.106,38.106,0,0,1-8.146-8.357,1.728,1.728,0,0,1,0-1.956,38.141,38.141,0,0,1,8.146-8.357A14.826,14.826,0,0,1-5831,43a14.8,14.8,0,0,1,8.548,2.665,38.256,38.256,0,0,1,8.148,8.357,1.724,1.724,0,0,1,0,1.955,38.221,38.221,0,0,1-8.148,8.357A14.794,14.794,0,0,1-5831,67,14.825,14.825,0,0,1-5839.551,64.336Zm2.6-9.336a5.977,5.977,0,0,0,5.95,6,5.983,5.983,0,0,0,5.95-6,5.978,5.978,0,0,0-5.95-6A5.973,5.973,0,0,0-5836.95,55Zm2.95,0a3,3,0,0,1,3-3,3,3,0,0,1,3,3,3,3,0,0,1-3,3A3,3,0,0,1-5834,55Z" transform="translate(7104 494)" fill="#e85049"/>
    </clipPath>
  </defs>
  <g id="Group_2100" data-name="Group 2100" transform="translate(-1249 -525)">
    <path id="Path_777" data-name="Path 777" d="M6.857,0H41.143A6.857,6.857,0,0,1,48,6.857V41.143A6.857,6.857,0,0,1,41.143,48H6.857A6.857,6.857,0,0,1,0,41.143V6.857A6.857,6.857,0,0,1,6.857,0Z" transform="translate(1249 525)" fill="#fff"/>
    <g id="Mask_Group_169" data-name="Mask Group 169" transform="translate(0.001)" clip-path="url(#clip-path)">
      <g id="Group_2099" data-name="Group 2099">
        <rect id="Rectangle_829" data-name="Rectangle 829" width="38" height="35" transform="translate(1254 531)" fill="#e85049"/>
        <rect id="Rectangle_828" data-name="Rectangle 828" width="19" height="35" transform="translate(1273 531)" fill="#fff" opacity="0.2"/>
      </g>
    </g>
  </g>
</svg>
