<svg id="linkedin" xmlns="http://www.w3.org/2000/svg" width="15.875" height="15.875" viewBox="0 0 15.875 15.875">
  <path id="Path_145" data-name="Path 145" d="M18.745,18.439h0V12.616c0-2.848-.613-5.042-3.943-5.042a3.457,3.457,0,0,0-3.113,1.711h-.046V7.84H8.489v10.6h3.287V13.19c0-1.382.262-2.718,1.973-2.718,1.686,0,1.711,1.577,1.711,2.807v5.16Z" transform="translate(-2.874 -2.564)" fill="#fff"/>
  <path id="Path_146" data-name="Path 146" d="M.4,7.977H3.687v10.6H.4Z" transform="translate(-0.134 -2.701)" fill="#fff"/>
  <path id="Path_147" data-name="Path 147" d="M1.906,0A1.915,1.915,0,1,0,3.813,1.906,1.907,1.907,0,0,0,1.906,0Z" fill="#fff"/>
</svg>
