<svg id="Component_27_21" data-name="Component 27 – 21" xmlns="http://www.w3.org/2000/svg" width="28" height="28" viewBox="0 0 28 28">
  <g id="Group_1808" data-name="Group 1808" transform="translate(-29 -410)">
    <g id="Path_778" data-name="Path 778" transform="translate(29 410)" fill="#fff">
      <path d="M4,0H24a4,4,0,0,1,4,4V24a4,4,0,0,1-4,4H4a4,4,0,0,1-4-4V4A4,4,0,0,1,4,0Z" stroke="none"/>
      <path d="M 4.000001907348633 1.000001907348633 C 2.345790863037109 1.000001907348633 1.000001907348633 2.345790863037109 1.000001907348633 4.000001907348633 L 1.000001907348633 24 C 1.000001907348633 25.65421104431152 2.345790863037109 27 4.000001907348633 27 L 24 27 C 25.65421104431152 27 27 25.65421104431152 27 24 L 27 4.000001907348633 C 27 2.345790863037109 25.65421104431152 1.000001907348633 24 1.000001907348633 L 4.000001907348633 1.000001907348633 M 4.000001907348633 1.9073486328125e-06 L 24 1.9073486328125e-06 C 26.20914077758789 1.9073486328125e-06 28 1.790861129760742 28 4.000001907348633 L 28 24 C 28 26.20914077758789 26.20914077758789 28 24 28 L 4.000001907348633 28 C 1.790861129760742 28 1.9073486328125e-06 26.20914077758789 1.9073486328125e-06 24 L 1.9073486328125e-06 4.000001907348633 C 1.9073486328125e-06 1.790861129760742 1.790861129760742 1.9073486328125e-06 4.000001907348633 1.9073486328125e-06 Z" stroke="none" fill="rgba(77,90,109,0.12)"/>
    </g>
  </g>
  <g id="Group_1868" data-name="Group 1868" transform="translate(-446 -468.999)">
    <g id="Group_1827" data-name="Group 1827" transform="translate(450 473)">
      <g id="_6622908_and_fitness_sports_stopwatch_time_icon" data-name="6622908_and_fitness_sports_stopwatch_time_icon" transform="translate(0 0)">
        <path id="Path_793" data-name="Path 793" d="M12,4A10,10,0,1,0,22,14,10.029,10.029,0,0,0,12,4Zm5,10.714H14a2.081,2.081,0,0,1-2,1.429A2.1,2.1,0,0,1,9.857,14a2.081,2.081,0,0,1,1.429-2V7.571a.714.714,0,1,1,1.429,0V12A2.277,2.277,0,0,1,14,13.286h3a.714.714,0,1,1,0,1.429Z" transform="translate(-2 -4)" fill="#14c460"/>
      </g>
    </g>
    <path id="Subtraction_15" data-name="Subtraction 15" d="M-10283-5371h0v-7.855a2.071,2.071,0,0,0,2-1.429h3a.678.678,0,0,0,.716-.716.678.678,0,0,0-.716-.715h-3a2.294,2.294,0,0,0-1.283-1.284v-4.428a.678.678,0,0,0-.716-.715V-5391a9.925,9.925,0,0,1,7.063,2.938A9.925,9.925,0,0,1-10273-5381a9.925,9.925,0,0,1-2.937,7.063A9.928,9.928,0,0,1-10283-5371Z" transform="translate(10743 5864)" fill="#fff" opacity="0.2"/>
  </g>
</svg>
