<svg id="Save_For_Later" data-name="Save For Later" xmlns="http://www.w3.org/2000/svg" width="28" height="28" viewBox="0 0 28 28">
  <g id="Path_852" data-name="Path 852" fill="#fff">
    <path d="M4.308,0H23.692A4.308,4.308,0,0,1,28,4.308V23.692A4.308,4.308,0,0,1,23.692,28H4.308A4.308,4.308,0,0,1,0,23.692V4.308A4.308,4.308,0,0,1,4.308,0Z" stroke="none"/>
    <path d="M 4.30769157409668 1.000001907348633 C 2.483821868896484 1.000001907348633 1.000001907348633 2.483821868896484 1.000001907348633 4.30769157409668 L 1.000001907348633 23.69231033325195 C 1.000001907348633 25.51618194580078 2.483821868896484 27 4.30769157409668 27 L 23.69231033325195 27 C 25.51618194580078 27 27 25.51618194580078 27 23.69231033325195 L 27 4.30769157409668 C 27 2.483821868896484 25.51618194580078 1.000001907348633 23.69231033325195 1.000001907348633 L 4.30769157409668 1.000001907348633 M 4.30769157409668 1.9073486328125e-06 L 23.69231033325195 1.9073486328125e-06 C 26.07138061523438 1.9073486328125e-06 28 1.928621292114258 28 4.30769157409668 L 28 23.69231033325195 C 28 26.07138061523438 26.07138061523438 28 23.69231033325195 28 L 4.30769157409668 28 C 1.928621292114258 28 1.9073486328125e-06 26.07138061523438 1.9073486328125e-06 23.69231033325195 L 1.9073486328125e-06 4.30769157409668 C 1.9073486328125e-06 1.928621292114258 1.928621292114258 1.9073486328125e-06 4.30769157409668 1.9073486328125e-06 Z" stroke="none" fill="rgba(77,90,109,0.12)"/>
  </g>
  <path id="_3671704_bookmark_icon" data-name="3671704_bookmark_icon" d="M2,1.6A1.557,1.557,0,0,1,3.5,0h9A1.552,1.552,0,0,1,14,1.6V16L8,12.8,2,16Z" transform="translate(6.5 6.5)" fill="#4d5a6d" stroke="#4d5a6d" stroke-width="1"/>
</svg>
