<svg xmlns="http://www.w3.org/2000/svg" width="20" height="20" viewBox="0 0 20 20">
  <g id="Group_1819" data-name="Group 1819" transform="translate(-356 -185)">
    <g id="icons" transform="translate(354.045 183.013)">
      <path id="favorite" d="M12.869,2.6l2.294,4.99a1.055,1.055,0,0,0,.7.6l5.185.8a.9.9,0,0,1,.6,1.6l-3.789,3.892a1.394,1.394,0,0,0-.3.9l.9,5.389a1,1,0,0,1-1.4,1.1l-4.687-2.595a.747.747,0,0,0-.9,0L6.786,21.861a.963.963,0,0,1-1.4-1.1l.9-5.389a1.007,1.007,0,0,0-.3-.9L2.2,10.583a1.037,1.037,0,0,1,.6-1.7l5.185-.8a.856.856,0,0,0,.7-.6L10.974,2.5A1.081,1.081,0,0,1,12.869,2.6Z" transform="translate(0 0)" fill="#f59433"/>
    </g>
    <path id="Subtraction_7" data-name="Subtraction 7" d="M-10277.475-5371.01a.842.842,0,0,1-.423-.116l-4.687-2.594a.823.823,0,0,0-.416-.148V-5391a1.041,1.041,0,0,1,.914.611l2.295,4.991a1.037,1.037,0,0,0,.7.6l5.185.8a.869.869,0,0,1,.841.524.99.99,0,0,1-.241,1.072l-3.79,3.894a1.38,1.38,0,0,0-.3.9l.9,5.389a1.117,1.117,0,0,1-.271.877A.951.951,0,0,1-10277.475-5371.01Z" transform="translate(10649 5576)" fill="#fff" opacity="0.2"/>
  </g>
</svg>
