<svg id="twitter" xmlns="http://www.w3.org/2000/svg" width="19.538" height="15.875" viewBox="0 0 19.538 15.875">
  <g id="Group_30" data-name="Group 30">
    <path id="Path_144" data-name="Path 144" d="M19.538,49.879a8.351,8.351,0,0,1-2.308.633A3.983,3.983,0,0,0,18.993,48.3a8,8,0,0,1-2.54.97,4.005,4.005,0,0,0-6.929,2.739,4.124,4.124,0,0,0,.093.913A11.338,11.338,0,0,1,1.36,48.73a4.007,4.007,0,0,0,1.231,5.354,3.956,3.956,0,0,1-1.81-.493v.044A4.024,4.024,0,0,0,3.991,57.57a4,4,0,0,1-1.05.132,3.542,3.542,0,0,1-.758-.068,4.044,4.044,0,0,0,3.743,2.79A8.048,8.048,0,0,1,.959,62.132,7.5,7.5,0,0,1,0,62.077a11.277,11.277,0,0,0,6.145,1.8,11.322,11.322,0,0,0,11.4-11.4c0-.177-.006-.348-.015-.518A7.991,7.991,0,0,0,19.538,49.879Z" transform="translate(0 -48)" fill="#fff"/>
  </g>
</svg>
